<?xml version="1.0" standalone="no"?>
<!DOCTYPE svg PUBLIC "-//W3C//DTD SVG 20010904//EN"
 "http://www.w3.org/TR/2001/REC-SVG-20010904/DTD/svg10.dtd">
<svg version="1.0" xmlns="http://www.w3.org/2000/svg"
 width="190.000000pt" height="189.000000pt" viewBox="0 0 190.000000 189.000000"
 preserveAspectRatio="xMidYMid meet">

<g transform="translate(0.000000,189.000000) scale(0.100000,-0.100000)"
fill="#000000" stroke="none">
<path d="M706 1415 c-38 -13 -96 -41 -129 -61 -33 -21 -66 -37 -72 -37 -7 0
-11 -10 -11 -21 2 -26 17 -23 70 13 98 67 178 94 275 93 116 -2 193 -71 195
-177 0 -45 -5 -61 -36 -108 -20 -30 -82 -94 -137 -142 -56 -48 -101 -89 -101
-92 0 -5 81 63 170 141 61 54 117 130 131 177 7 22 19 39 26 39 8 0 13 6 10
13 -2 6 -9 11 -15 10 -6 -2 -15 12 -21 30 -15 44 -85 110 -139 131 -60 23
-135 20 -216 -9z"/>
<path d="M1400 1350 c-2 -14 -2 -58 -1 -97 0 -46 -3 -73 -10 -73 -6 0 -8 -9
-4 -20 3 -10 -1 -33 -10 -50 -8 -16 -12 -30 -8 -30 4 0 2 -5 -5 -12 -7 -7 -12
-17 -12 -22 0 -21 27 30 43 79 22 69 29 152 18 205 -6 32 -9 38 -11 20z"/>
<path d="M920 1080 c-23 -7 -23 -8 -3 -9 12 -1 25 4 28 9 3 6 5 10 3 9 -2 -1
-14 -5 -28 -9z"/>
<path d="M1295 983 c-25 -30 -96 -88 -171 -141 -46 -32 18 5 79 46 37 24 81
60 97 79 17 19 35 31 40 28 6 -3 7 1 4 9 -9 22 -15 19 -49 -21z"/>
<path d="M760 835 c0 -43 25 -48 28 -6 1 18 -3 31 -13 35 -12 4 -15 -3 -15
-29z"/>
<path d="M760 765 c0 -14 -1 -28 -2 -32 -1 -5 7 -9 18 -10 18 -3 18 -2 -1 6
l-20 10 20 0 c16 1 17 3 6 10 -8 5 -11 16 -8 25 4 9 2 16 -3 16 -6 0 -10 -11
-10 -25z"/>
<path d="M952 750 c-12 -10 -28 -20 -35 -23 -6 -2 -10 -7 -7 -10 3 -3 23 8 44
24 22 16 35 29 30 29 -5 -1 -19 -9 -32 -20z"/>
<path d="M759 706 c-3 -3 -3 -23 -1 -45 4 -39 6 -41 36 -40 24 1 40 11 70 45
41 47 44 57 6 24 -12 -11 -26 -17 -31 -14 -5 3 -6 -2 -3 -11 4 -10 2 -15 -7
-13 -8 2 -13 -1 -12 -7 1 -5 -10 -11 -23 -11 -13 -1 -24 2 -24 8 0 5 5 6 10 3
6 -3 10 -1 10 4 0 6 -4 11 -10 11 -14 0 -12 37 3 43 8 4 6 6 -4 6 -9 1 -18 -1
-20 -3z"/>
<path d="M728 550 c-46 -14 -98 -50 -113 -80 -21 -41 -19 -47 6 -16 69 88 222
94 323 12 23 -18 30 -31 30 -62 1 -21 5 -45 9 -51 22 -34 -53 -163 -95 -163
-7 0 -19 -5 -25 -11 -10 -10 -89 -9 -158 3 -29 5 -32 -28 -3 -36 58 -15 224
-3 212 16 -3 5 7 21 23 35 64 59 79 123 51 216 -32 105 -153 169 -260 137z"/>
<path d="M587 396 c-4 -10 -7 -29 -7 -44 0 -24 1 -25 16 -10 13 12 14 22 7 44
-8 24 -10 25 -16 10z"/>
<path d="M581 307 c-1 -23 16 -56 40 -80 23 -21 26 -5 3 17 -8 9 -12 16 -8 16
4 0 0 8 -8 18 -9 9 -18 24 -21 32 -4 12 -6 11 -6 -3z"/>
<path d="M978 193 c6 -2 18 -2 25 0 6 3 1 5 -13 5 -14 0 -19 -2 -12 -5z"/>
</g>
</svg>
